#!OML:ASF F:\VICON\USERDATA\INSTALL\rory3\rory3.ASF
:FULLY-SPECIFIED
:DEGREES
1258
root 0.896624 18.3243 -8.28842 -135.195 -30.1298 156.727
lowerback -9.76786 -2.35722 -1.74577
upperback -15.0211 -5.27918 -1.10982
thorax -10.7189 -3.42644 -0.077889
lowerneck -15.9244 -8.42855 -11.8057
upperneck -0.553501 -9.76972 -5.84814
head 2.84241 -5.51335 -0.669023
rclavicle -1.82882e-014 1.59028e-015
rhumerus 76.6751 -40.2755 -91.5179
rradius 7.19149
rwrist 78.8645
rhand 23.8107 4.28956
rfingers 7.12502
rthumb 48.067 -17.8919
lclavicle -1.82882e-014 1.59028e-015
lhumerus -25.3621 -25.867 20.8026
lradius 17.5694
lwrist -34.2297
lhand 18.6132 27.9001
lfingers 7.12502
lthumb 43.241 52.0604
rfemur -56.8861 11.6718 -13.6863
rtibia 39.0615
rfoot -55.2005 -11.5329
rtoes 62.6803
lfemur 5.76691 -7.2655 -12.7907
ltibia 20.0205
lfoot 17.2692 44.7716
ltoes 33.231
1259
root 0.918242 18.3478 -8.36264 -133.748 -29.6837 155.291
lowerback -9.81906 -2.15489 -2.78628
upperback -15.9327 -5.3704 -1.9677
thorax -11.8378 -3.53229 -0.357389
lowerneck -14.7514 -8.61288 -11.6586
upperneck -0.656026 -10.1769 -5.97978
head 2.58391 -5.67274 -0.703495
rclavicle -5.83433e-014 4.77083e-015
rhumerus 77.1013 -40.0785 -91.0512
rradius 8.77715
rwrist 79.245
rhand 24.9446 3.98161
rfingers 7.12502
rthumb 49.1103 -17.6961
lclavicle -5.83433e-014 4.77083e-015
lhumerus -23.9562 -27.221 17.4798
lradius 17.7121
lwrist -34.2519
lhand 18.2228 27.692
lfingers 7.12502
lthumb 42.876 51.9816
rfemur -57.2363 14.8716 -17.8484
rtibia 38.4426
rfoot -60.0092 -5.93965
rtoes 63.3367
lfemur 6.65619 -7.33836 -12.6313
ltibia 19.7678
lfoot 19.4531 45.2663
ltoes 31.9065
1260
root 0.930566 18.3749 -8.42679 -132.618 -29.6356 154.376
lowerback -10.2476 -2.0269 -3.16941
upperback -16.4893 -5.46796 -2.64446
thorax -12.3507 -3.68333 -0.866451
lowerneck -13.8393 -8.83917 -11.59
upperneck -0.882302 -10.5977 -5.71518
head 2.3609 -5.82187 -0.604799
rclavicle 4.8901e-014 7.31528e-014
rhumerus 78.5115 -39.7286 -91.1279
rradius 9.21668
rwrist 79.2105
rhand 24.7843 3.5525
rfingers 7.12502
rthumb 48.963 -18.1982
lclavicle 4.8901e-014 7.31528e-014
lhumerus -22.4004 -28.2229 14.1255
lradius 17.9115
lwrist -34.1834
lhand 18.1799 28.0046
lfingers 7.12502
lthumb 42.836 52.3082
rfemur -56.6015 13.3731 -17.8399
rtibia 37.7866
rfoot -59.3468 -3.37621
rtoes 63.7986
lfemur 7.56893 -7.61276 -11.8647
ltibia 19.6383
lfoot 20.856 45.3056
ltoes 30.7591
1261
root 0.927058 18.4149 -8.47573 -132.059 -30.4493 153.906
lowerback -11.969 -2.78187 -3.40124
upperback -15.3543 -5.98284 -2.00555
thorax -9.86569 -3.79662 -0.294709
lowerneck -15.7109 -8.8265 -11.5415
upperneck -1.85515 -10.5656 -5.71609
head 2.3458 -5.85698 -0.673601
rclavicle 2.54941e-014 -1.74931e-014
rhumerus 83.7318 -37.204 -93.327
rradius 9.79074
rwrist 79.2997
rhand 24.552 2.97702
rfingers 7.12502
rthumb 48.7496 -18.8783
lclavicle 2.54941e-014 -1.74931e-014
lhumerus -21.3255 -24.712 11.5698
lradius 17.6492
lwrist -35.0669
lhand 18.5777 28.4978
lfingers 7.12502
lthumb 43.2079 52.6699
rfemur -55.4078 11.9361 -16.7424
rtibia 37.1885
rfoot -58.7601 -1.7105
rtoes 64.0659
lfemur 8.85352 -8.2558 -10.2288
ltibia 19.4666
lfoot 19.7856 46.4035
ltoes 32.1536
1262
root 0.934667 18.4412 -8.5251 -130.783 -30.3937 152.893
lowerback -13.9751 -3.64809 -4.96837
upperback -14.4369 -6.6443 -1.32514
thorax -7.45297 -3.92983 0.974118
lowerneck -17.6568 -8.6886 -11.354
upperneck -2.63178 -10.4121 -6.13292
head 2.37098 -5.8788 -0.899874
rclavicle 1.14202e-013 -2.8625e-014
rhumerus 88.4992 -34.4255 -94.878
rradius 9.79067
rwrist 79.4358
rhand 23.4699 2.55529
rfingers 7.12502
rthumb 47.7528 -19.772
lclavicle 1.14202e-013 -2.8625e-014
lhumerus -20.8809 -20.7669 9.24698
lradius 17.4935
lwrist -36.5828
lhand 19.2238 28.8189
lfingers 7.12502
lthumb 43.8113 52.7718
rfemur -54.8935 10.2419 -16.7698
rtibia 36.5636
rfoot -58.0665 -0.458416
rtoes 64.3345
lfemur 9.49061 -8.64995 -9.53209
ltibia 19.4598
lfoot 20.8187 46.919
ltoes 32.1145
1263
root 0.941707 18.4646 -8.56665 -129.576 -30.53 151.852
lowerback -11.8309 -2.54862 -3.93617
upperback -17.0646 -6.39512 -3.20367
thorax -12.2099 -4.23903 -1.14253
lowerneck -14.3809 -9.12096 -11.2035
upperneck -1.13507 -11.018 -6.14876
head 2.32584 -6.0585 -0.855093
rclavicle 2.28602e-014 7.4743e-014
rhumerus 85.4701 -36.189 -92.3663
rradius 9.57775
rwrist 79.3182
rhand 22.0243 2.35735
rfingers 7.12502
rthumb 46.416 -20.5619
lclavicle 2.28602e-014 7.4743e-014
lhumerus -18.3687 -25.8608 5.35668
lradius 18.195
lwrist -35.9828
lhand 19.8831 29.5089
lfingers 7.12502
lthumb 44.4262 53.2309
rfemur -54.156 8.50203 -16.628
rtibia 35.8779
rfoot -57.332 1.30931
rtoes 64.5565
lfemur 9.98403 -9.09849 -8.63578
ltibia 19.7372
lfoot 21.9242 47.0456
ltoes 31.583
1264
root 0.955788 18.4765 -8.61036 -127.974 -30.3476 150.496
lowerback -12.7426 -2.67365 -5.07555
upperback -17.2193 -6.58014 -3.45774
thorax -11.8449 -4.28309 -0.871035
lowerneck -14.2325 -9.39471 -11.6487
upperneck -1.68882 -11.4391 -6.13492
head 2.13643 -6.25742 -0.784231
rclavicle 7.25564e-014 3.18055e-014
rhumerus 87.9771 -35.2967 -92.2943
rradius 9.5182
rwrist 79.5245
rhand 21.6902 1.96729
rfingers 7.12502
rthumb 46.1063 -21.0829
lclavicle 7.25564e-014 3.18055e-014
lhumerus -16.712 -24.6474 3.02466
lradius 18.1665
lwrist -36.235
lhand 19.7929 30.331
lfingers 7.12502
lthumb 44.3421 54.0851
rfemur -53.7292 6.52102 -16.9658
rtibia 35.2392
rfoot -56.5791 2.60024
rtoes 64.6868
lfemur 10.2125 -9.60492 -8.16277
ltibia 20.0234
lfoot 20.7452 47.941
ltoes 32.65
1265
root 0.960071 18.4959 -8.63859 -126.879 -30.7845 149.536
lowerback -12.6711 -2.85936 -4.94978
upperback -18.3398 -7.43095 -4.13597
thorax -13.5058 -4.94442 -1.58291
lowerneck -12.0228 -8.96957 -10.347
upperneck -1.69836 -11.2431 -6.31037
head 1.65541 -6.06589 -0.893834
rclavicle 5.02925e-014 9.54166e-015
rhumerus 87.401 -34.3279 -92.2295
rradius 9.62273
rwrist 79.7998
rhand 22.7097 1.97024
rfingers 7.12502
rthumb 47.0505 -20.6737
lclavicle 5.02925e-014 9.54166e-015
lhumerus -15.6283 -25.5548 -0.982079
lradius 18.477
lwrist -37.0179
lhand 19.834 30.9347
lfingers 7.12502
lthumb 44.3804 54.6743
rfemur -52.8173 4.64889 -16.6148
rtibia 34.5913
rfoot -55.6849 3.4797
rtoes 64.7158
lfemur 10.6697 -10.0025 -6.86586
ltibia 20.335
lfoot 22.3003 47.6428
ltoes 31.8527
1266
root 0.976198 18.497 -8.67174 -125.475 -30.0291 148.003
lowerback -12.9623 -3.05682 -6.54535
upperback -18.9878 -8.0566 -4.69242
thorax -14.2107 -5.23838 -1.30504
lowerneck -11.3997 -8.80031 -10.0682
upperneck -1.33521 -11.0312 -6.23955
head 1.65807 -5.93569 -0.880097
rclavicle -1.88845e-014 -3.02153e-014
rhumerus 88.0796 -33.3192 -92.1125
rradius 9.84581
rwrist 79.8337
rhand 23.3268 2.09243
rfingers 7.12502
rthumb 47.6207 -20.2954
lclavicle -1.88845e-014 -3.02153e-014
lhumerus -14.2299 -24.9241 -4.11709
lradius 18.7222
lwrist -38.3473
lhand 20.6853 31.5126
lfingers 7.12502
lthumb 45.173 54.9437
rfemur -52.2925 2.83607 -17.6637
rtibia 34.0523
rfoot -54.8046 3.6147
rtoes 64.7079
lfemur 11.1999 -10.2317 -6.9639
ltibia 20.5472
lfoot 25.4223 46.9472
ltoes 29.344
1267
root 0.984133 18.5005 -8.69738 -124.677 -29.7322 146.933
lowerback -13.9851 -3.18928 -7.76928
upperback -16.5976 -6.89621 -4.0294
thorax -10.2734 -4.21227 -0.211182
lowerneck -19.3405 -10.4894 -13.2718
upperneck 0.0110303 -11.7522 -5.66612
head 3.29213 -6.62806 -0.789804
rclavicle -5.84427e-014 3.18055e-015
rhumerus 96.749 -32.4016 -92.9276
rradius 10.035
rwrist 79.4118
rhand 23.548 1.77431
rfingers 7.12502
rthumb 47.8248 -20.5198
lclavicle -5.84427e-014 3.18055e-015
lhumerus -12.1526 -17.5104 -3.21176
lradius 18.3263
lwrist -39.3333
lhand 21.7719 32.9359
lfingers 7.12502
lthumb 46.182 55.9542
rfemur -51.472 1.33834 -18.0091
rtibia 33.5105
rfoot -54.0596 3.83686
rtoes 64.6665
lfemur 12.0521 -10.3796 -6.4329
ltibia 20.931
lfoot 29.2978 45.6488
ltoes 26.0116
1268
root 0.985518 18.5062 -8.71821 -124.478 -30.1578 146.369
lowerback -12.9366 -3.14163 -7.31679
upperback -18.4133 -7.86365 -4.8341
thorax -13.4029 -4.98174 -1.10144
lowerneck -13.985 -9.59033 -11.4501
upperneck -1.26223 -11.6477 -6.20495
head 2.23159 -6.34879 -0.855802
rclavicle 1.05356e-013 -3.18055e-015
rhumerus 93.9999 -31.5939 -92.3186
rradius 9.79598
rwrist 78.4884
rhand 23.5834 1.42548
rfingers 7.12502
rthumb 47.8574 -20.8536
lclavicle 1.05356e-013 -3.18055e-015
lhumerus -11.0544 -20.6588 -7.31093
lradius 18.757
lwrist -39.5669
lhand 22.1938 33.6644
lfingers 7.12502
lthumb 46.573 56.5165
rfemur -50.2998 0.0814175 -17.4539
rtibia 33.0028
rfoot -53.412 3.76594
rtoes 64.622
lfemur 13.2641 -10.6086 -4.99654
ltibia 21.2906
lfoot 31.2197 45.1338
ltoes 25.4609
